#!OML:ASF F:\VICON\USERDATA\INSTALL\rory3\rory3.ASF
:FULLY-SPECIFIED
:DEGREES
63
root 0.692073 18.0232 -21.5116 -3.22995 -1.84167 0.475572
lowerback 10.0538 -0.118771 -2.12279
upperback 0.500736 -0.309984 1.70182
thorax -5.09972 -0.0845337 3.02095
lowerneck -15.3831 -2.55253 -2.06033
upperneck 17.8852 -3.14949 0.630663
head 8.12444 -1.57162 0.189022
rclavicle -1.07095e-014 5.56597e-015
rhumerus -32.2684 -14.7074 -78.2278
rradius 26.5156
rwrist 5.6015
rhand -13.9545 15.557
rfingers 7.12502
rthumb 12.173 -14.0688
lclavicle -1.07095e-014 5.56597e-015
lhumerus -34.3198 -0.18501 83.679
lradius 28.4395
lwrist 3.6309
lhand -25.177 33.6588
lfingers 7.12502
lthumb 1.34064 63.6344
rfemur -21.785 -1.28226 21.7217
rtibia 70.1206
rfoot -6.35953 -2.91297
rtoes 5.81538
lfemur -7.99091 0.848763 -24.3909
ltibia 24.6022
lfoot -12.7036 0.055254
ltoes -1.08684
64
root 0.701639 18.0069 -21.3565 -3.10977 -1.73883 0.562427
lowerback 9.93031 -0.169151 -2.16307
upperback 0.562335 -0.380025 1.69821
thorax -4.96089 -0.12123 3.04755
lowerneck -15.4245 -2.60657 -2.14732
upperneck 17.8811 -3.21492 0.694551
head 8.13408 -1.60183 0.21645
rclavicle 9.64106e-015 1.31198e-014
rhumerus -32.3769 -14.5997 -78.3166
rradius 26.7212
rwrist 5.16242
rhand -13.966 15.6333
rfingers 7.12502
rthumb 12.1619 -13.9932
lclavicle 9.64106e-015 1.31198e-014
lhumerus -33.9252 -1.10487 83.7957
lradius 29.0316
lwrist 4.31866
lhand -24.7837 34.8002
lfingers 7.12502
lthumb 1.72046 64.7731
rfemur -23.0076 -1.62209 21.6864
rtibia 69.4639
rfoot -7.5485 -3.67821
rtoes 6.88584
lfemur -7.94735 0.983034 -24.6049
ltibia 25.2833
lfoot -13.8573 0.572889
ltoes -5.6241
65
root 0.715286 18.024 -21.1956 -3.04592 -1.79417 0.850264
lowerback 9.78699 -0.19089 -2.45377
upperback 0.696136 -0.438998 1.69864
thorax -4.73435 -0.14968 3.21737
lowerneck -15.8359 -2.59106 -2.1827
upperneck 18.0072 -3.16827 0.657076
head 8.24896 -1.58401 0.209103
rclavicle 1.49089e-016 -9.14409e-015
rhumerus -32.3174 -14.2453 -78.456
rradius 26.9461
rwrist 4.67119
rhand -14.1504 15.5852
rfingers 7.12502
rthumb 11.9841 -14.0518
lclavicle 1.49089e-016 -9.14409e-015
lhumerus -33.4194 -1.41884 83.7273
lradius 29.5195
lwrist 4.35965
lhand -24.1208 36.1924
lfingers 7.12502
lthumb 2.3607 66.1591
rfemur -23.9683 -1.81366 21.4114
rtibia 68.5349
rfoot -8.14614 -4.09483
rtoes 5.25506
lfemur -7.42393 1.06592 -24.9905
ltibia 25.924
lfoot -15.0454 0.868431
ltoes -4.37691
66
root 0.722993 18.0119 -21.0516 -3.08162 -1.74534 1.11299
lowerback 10.0244 -0.139445 -2.71578
upperback 0.830195 -0.408132 1.62322
thorax -4.72785 -0.131703 3.2844
lowerneck -16.4951 -2.65967 -1.77573
upperneck 18.0982 -3.28217 0.329635
head 8.38527 -1.64062 0.0100289
rclavicle 2.01269e-015 -2.26615e-014
rhumerus -32.2739 -14.3801 -78.5473
rradius 27.1125
rwrist 4.61969
rhand -14.4385 16.4448
rfingers 7.12502
rthumb 11.7062 -13.2082
lclavicle 2.01269e-015 -2.26615e-014
lhumerus -32.6097 -1.85137 83.56
lradius 29.7997
lwrist 3.62103
lhand -23.0937 38.5271
lfingers 7.12502
lthumb 3.35265 68.4805
rfemur -24.9355 -2.18275 21.194
rtibia 67.6596
rfoot -8.74272 -4.05828
rtoes 2.58976
lfemur -6.66725 0.799663 -25.2921
ltibia 26.2662
lfoot -15.7925 1.35404
ltoes -0.129478
67
root 0.727158 17.9889 -20.9054 -3.03143 -1.58747 1.21304
lowerback 10.1018 -0.14332 -2.84876
upperback 0.919547 -0.42998 1.61808
thorax -4.67493 -0.142166 3.35756
lowerneck -16.698 -2.73183 -1.63774
upperneck 17.9687 -3.39225 0.238916
head 8.37448 -1.69173 -0.0579752
rclavicle 1.49089e-016 -9.14409e-015
rhumerus -32.3633 -14.5336 -78.5584
rradius 27.2926
rwrist 4.61153
rhand -14.2606 17.6225
rfingers 7.12502
rthumb 11.8778 -12.0206
lclavicle 1.49089e-016 -9.14409e-015
lhumerus -32.008 -3.10707 83.9141
lradius 29.8825
lwrist 6.23888
lhand -25.3526 34.5053
lfingers 7.12502
lthumb 1.17099 64.4818
rfemur -25.9086 -2.55151 21.1731
rtibia 66.6872
rfoot -9.42888 -4.09727
rtoes 1.48441
lfemur -6.26863 0.572515 -25.4114
ltibia 26.6273
lfoot -16.4028 1.49709
ltoes 3.57873
68
root 0.731828 17.9389 -20.7544 -2.86811 -1.4142 1.24088
lowerback 9.98853 -0.246568 -2.86402
upperback 0.927702 -0.565796 1.62663
thorax -4.59211 -0.210699 3.39201
lowerneck -16.5137 -2.74654 -1.66516
upperneck 17.6923 -3.42123 0.310366
head 8.25074 -1.70098 -0.0280992
rclavicle 7.23079e-015 1.59028e-015
rhumerus -32.5753 -14.3789 -78.6602
rradius 27.6514
rwrist 4.52386
rhand -13.9489 17.1589
rfingers 7.12502
rthumb 12.1784 -12.4666
lclavicle 7.23079e-015 1.59028e-015
lhumerus -31.7263 -3.71738 83.896
lradius 30.3934
lwrist 7.28847
lhand -25.9416 33.2142
lfingers 7.12502
lthumb 0.60218 63.1931
rfemur -27.0694 -2.89876 21.2619
rtibia 65.735
rfoot -10.12 -4.59547
rtoes 1.38468
lfemur -6.55245 0.773994 -25.551
ltibia 26.6159
lfoot -16.0922 2.04591
ltoes -3.62548
69
root 0.733969 17.9194 -20.6036 -2.72556 -1.37497 1.2283
lowerback 10.0191 -0.429439 -3.03432
upperback 0.67301 -0.819593 1.82536
thorax -4.85075 -0.321616 3.73634
lowerneck -15.6637 -2.60385 -2.10388
upperneck 17.5043 -3.16278 0.455189
head 8.04503 -1.5973 0.135229
rclavicle -1.94809e-014 1.78906e-014
rhumerus -33.256 -13.485 -78.5775
rradius 28.0922
rwrist 4.51092
rhand -13.7417 16.9438
rfingers 7.12502
rthumb 12.3782 -12.6698
lclavicle -1.94809e-014 1.78906e-014
lhumerus -32.1684 -3.86458 84.0434
lradius 31.0644
lwrist 8.60266
lhand -26.7916 31.6559
lfingers 7.12502
lthumb -0.218806 61.6356
rfemur -28.0909 -3.01969 21.4155
rtibia 64.5013
rfoot -10.5781 -5.0511
rtoes 1.75641
lfemur -6.17412 0.780437 -25.6059
ltibia 26.5175
lfoot -16.2756 2.36734
ltoes -4.011
